<svg width="24" height="24" viewBox="0 0 24 24" fill="none" xmlns="http://www.w3.org/2000/svg">
<path d="M6.01416 2.99985C3.80516 2.99985 2.01416 4.79085 2.01416 6.99985V7.99985H22.0142V6.99985C22.0142 4.79085 20.2232 2.99985 18.0142 2.99985H6.01416ZM3.01416 9.99985V17.9998C3.01416 20.1848 4.61717 21.9998 6.67017 21.9998H17.3582C19.4112 21.9998 21.0142 20.1848 21.0142 17.9998V9.99985H3.01416ZM10.5142 11.9998H13.5142C14.3422 11.9998 15.0142 12.6718 15.0142 13.4998C15.0142 14.3278 14.3422 14.9998 13.5142 14.9998H10.5142C9.68616 14.9998 9.01416 14.3278 9.01416 13.4998C9.01416 12.6718 9.68616 11.9998 10.5142 11.9998Z" fill="black"/>
</svg>
