<svg width="24" height="24" viewBox="0 0 24 24" fill="none" xmlns="http://www.w3.org/2000/svg">
<path d="M18.0142 3.99786C16.9092 3.99786 16.0142 4.89286 16.0142 5.99786V17.9979C16.0142 19.1029 16.9092 19.9979 18.0142 19.9979H20.0142C21.1192 19.9979 22.0142 19.1029 22.0142 17.9979V5.99786C22.0142 4.89286 21.1192 3.99786 20.0142 3.99786H18.0142ZM11.0142 7.99786C9.90916 7.99786 9.01416 8.89286 9.01416 9.99786V17.9979C9.01416 19.1029 9.90916 19.9979 11.0142 19.9979H13.0142C14.1192 19.9979 15.0142 19.1029 15.0142 17.9979V9.99786C15.0142 8.89286 14.1192 7.99786 13.0142 7.99786H11.0142ZM4.01416 11.9979C2.90916 11.9979 2.01416 12.8929 2.01416 13.9979V17.9979C2.01416 19.1029 2.90916 19.9979 4.01416 19.9979H6.01416C7.11916 19.9979 8.01416 19.1029 8.01416 17.9979V13.9979C8.01416 12.8929 7.11916 11.9979 6.01416 11.9979H4.01416Z" fill="black"/>
</svg>
