<svg width="24" height="24" viewBox="0 0 24 24" fill="none" xmlns="http://www.w3.org/2000/svg">
<path d="M6.01416 3.99786C3.80516 3.99786 2.01416 5.78886 2.01416 7.99786V15.9979C2.01416 18.2069 3.80516 19.9979 6.01416 19.9979L9.02316 20.0079C9.44916 20.0079 9.89516 20.2039 10.4062 20.6749C10.6052 20.8589 10.8432 21.0889 11.0052 21.3039C11.1852 21.5439 11.4202 22.0008 12.0142 21.9978C12.6082 21.9948 12.8012 21.5909 13.0142 21.3099C13.1752 21.1119 13.3682 20.9229 13.5672 20.7389C14.0792 20.2679 14.5882 19.9979 15.0142 19.9979H18.0142C20.2232 19.9979 22.0142 18.2069 22.0142 15.9979V7.99786C22.0142 5.78886 20.2232 3.99786 18.0142 3.99786H15.0142C13.8032 3.99786 12.7482 4.55387 12.0142 5.40387C11.2802 4.55387 10.2252 3.99786 9.01416 3.99786H6.01416ZM15.0142 5.99786H18.0142C19.1192 5.99786 20.0142 6.89286 20.0142 7.99786V15.9979C20.0142 17.1029 19.1192 17.9979 18.0142 17.9979H15.0142C14.3022 17.9979 13.6342 18.2548 13.0102 18.6598L13.0142 7.99786C13.0142 6.89286 13.9092 5.99786 15.0142 5.99786Z" fill="black"/>
</svg>
