<svg width="24" height="24" viewBox="0 0 24 24" fill="none" xmlns="http://www.w3.org/2000/svg">
<path d="M7.99774 2.01421C5.44574 2.01421 3.99774 3.46261 3.99774 6.01631V21.0242C3.99774 21.7425 4.74375 22.2128 5.40375 21.9309L11.9977 19.1169L18.5917 21.9309C19.2517 22.2139 19.9977 21.7423 19.9977 21.0242V6.01631C19.9977 3.39151 18.6927 2.01431 15.9977 2.01421H7.99774ZM9.99774 8.01741C10.7187 8.01741 11.3647 8.38291 11.7167 8.86151C11.8127 8.99291 11.9977 9.26801 11.9977 9.26801C11.9977 9.26791 12.2118 8.99031 12.3098 8.86151C12.6778 8.37941 13.3237 8.01741 13.9977 8.01741C15.1027 8.01741 15.9977 8.85731 15.9977 9.89331C15.9977 12.6031 11.9977 14.6771 11.9977 14.6771C11.9977 14.6771 7.99774 12.6031 7.99774 9.89331C7.99774 8.85741 8.89274 8.01741 9.99774 8.01741Z" fill="black"/>
</svg>
