<svg width="24" height="24" viewBox="0 0 24 24" fill="none" xmlns="http://www.w3.org/2000/svg">
<path d="M3.5 9.00024C3.5 5.96268 5.96243 3.50024 9 3.50024H15C18.0376 3.50024 20.5 5.96268 20.5 9.00024V15.0002C20.5 18.0378 18.0376 20.5002 15 20.5002H9C5.96243 20.5002 3.5 18.0378 3.5 15.0002V9.00024ZM16.0089 10.6341C16.497 10.146 16.497 9.35452 16.0089 8.86636C15.5207 8.37821 14.7293 8.37821 14.2411 8.86636L10.75 12.3575L9.88388 11.4914C9.39573 11.0032 8.60427 11.0032 8.11612 11.4914C7.62796 11.9795 7.62796 12.771 8.11612 13.2591L9.86612 15.0091C10.3543 15.4973 11.1457 15.4973 11.6339 15.0091L16.0089 10.6341Z" fill="black" stroke="black"/>
</svg>
