<svg width="25" height="24" viewBox="0 0 25 24" fill="none" xmlns="http://www.w3.org/2000/svg">
<g clip-path="url(#clip0_12118_26733)">
<path fill-rule="evenodd" clip-rule="evenodd" d="M9.96744 8.98572L12.3747 6.81041C13.4948 5.79826 15.003 5.32934 16.4995 5.52799L19.6838 5.9507L24.1037 3.56167C24.3892 3.40733 24.736 3.61409 24.736 3.93869V12.0612C24.736 12.6144 24.4692 13.1335 24.0194 13.4554L21.0429 15.5852L17.8216 12.8823C18.4687 12.6529 19.0214 12.2744 19.4774 11.8015C19.8881 11.3755 19.8758 10.6972 19.4498 10.2865C19.024 9.87574 18.3456 9.88809 17.9349 10.3141C17.6161 10.6447 17.2476 10.8571 16.8164 10.9415C16.4407 11.0151 15.9623 11.0019 15.3607 10.8175L14.5952 10.1752L12.4617 11.9018C11.6236 12.58 10.3914 12.4351 9.7336 11.5808C9.12251 10.7873 9.22433 9.65724 9.96744 8.98572ZM8.53073 7.39581L10.2592 5.83387C9.52538 5.63366 8.7479 5.59264 7.9798 5.72563L4.83312 6.27045L1.38134 4.41276C1.08962 4.25577 0.735962 4.46705 0.735962 4.79834L0.735997 12.0605C0.736 12.6397 1.02235 13.1814 1.50093 13.5077L10.8522 19.8823C12.0628 20.7075 13.6591 20.6923 14.8536 19.8439L19.1489 16.7934L14.5705 12.9518L13.8098 13.5674C12.036 15.003 9.42806 14.6962 8.0358 12.8882C6.74246 11.2087 6.95796 8.81705 8.53073 7.39581Z" fill="black"/>
</g>
<defs>
<clipPath id="clip0_12118_26733">
<rect width="24" height="24" fill="white" transform="translate(0.735962 0.000244141)"/>
</clipPath>
</defs>
</svg>
