<svg width="24" height="24" viewBox="0 0 24 24" fill="none" xmlns="http://www.w3.org/2000/svg">
<path d="M12.0283 1.99896C10.3713 1.99896 9.02829 3.34196 9.02829 4.99896C9.02829 6.26696 9.86729 7.40699 11.0263 7.82599L11.0283 10.999H7.02829C6.47629 10.999 6.02829 11.447 6.02829 11.999L6.02728 16.174C4.87628 16.57 4.02829 17.731 4.02829 18.999C4.02829 20.656 5.37129 21.999 7.02829 21.999C8.68529 21.999 10.0283 20.656 10.0283 18.999C10.0283 17.731 9.23329 16.6129 8.03929 16.1609L8.02829 12.999H12.0283H16.0283L16.0353 16.176C14.8343 16.593 14.0283 17.731 14.0283 18.999C14.0283 20.656 15.3713 21.999 17.0283 21.999C18.6853 21.999 20.0283 20.656 20.0283 18.999C20.0283 17.731 19.2093 16.615 18.0363 16.171L18.0283 11.999C18.0283 11.447 17.5803 10.999 17.0283 10.999H13.0283L13.0253 7.82196C14.1893 7.41096 15.0283 6.26696 15.0283 4.99896C15.0283 3.34196 13.6853 1.99896 12.0283 1.99896Z" fill="black"/>
</svg>
