<svg width="24" height="24" viewBox="0 0 24 24" fill="none" xmlns="http://www.w3.org/2000/svg">
<path d="M5.95215 3.99786C3.91815 3.99786 2.32617 4.51186 2.04517 6.46686C1.95517 7.09285 2.15315 7.70887 2.60816 8.15387C2.83416 8.37487 3.07316 8.63787 3.38916 8.90386C4.18216 9.57286 5.19317 10.3249 6.13917 10.9979C8.74217 12.8479 10.7972 13.9979 12.0142 13.9979C13.2312 13.9979 15.2862 12.8479 17.8892 10.9979C18.8362 10.3249 19.8472 9.57186 20.6392 8.90386C20.9552 8.63787 21.1942 8.37587 21.4202 8.15387C21.8752 7.70887 22.0732 7.09285 21.9832 6.46686C21.7022 4.51186 20.1102 3.99786 18.0762 3.99786H5.95215ZM2.01416 10.1539V15.9979C2.01416 18.2069 3.80516 19.9978 6.01417 19.9978H18.0142C20.2232 19.9978 22.0142 18.2069 22.0142 15.9979V10.1539C21.1942 10.9329 20.2782 11.7369 18.9832 12.6539C16.1472 14.6619 13.6002 15.9979 12.0142 15.9979C10.4282 15.9979 7.88118 14.6619 5.04517 12.6539C3.74917 11.7369 2.83416 10.9329 2.01416 10.1539Z" fill="black"/>
</svg>
