<svg width="24" height="24" viewBox="0 0 24 24" fill="none" xmlns="http://www.w3.org/2000/svg">
<path d="M8.9679 2.45578C7.5499 2.90478 6.3269 3.63979 5.2489 4.64279C4.9159 4.95379 4.81391 5.46078 5.02991 5.86178C5.83091 7.34278 4.99289 8.92678 3.18689 9.01778C2.74389 9.04078 2.3529 9.36778 2.2489 9.79878C2.0699 10.5438 1.9989 11.1678 1.9989 11.9868C1.9989 12.6738 2.0729 13.4508 2.2179 14.1428C2.3079 14.5748 2.6839 14.8858 3.1239 14.9248C4.9419 15.0818 5.84191 16.4678 5.02991 18.2368C4.84991 18.6298 4.9319 19.0998 5.2489 19.3928C6.3109 20.3758 7.5309 21.0678 8.9679 21.5178C9.3779 21.6468 9.8409 21.4918 10.0929 21.1428C11.2049 19.6048 12.8179 19.5988 13.8739 21.1428C14.1229 21.5068 14.5789 21.6818 14.9989 21.5488C16.3859 21.1128 17.6779 20.3698 18.7489 19.3928C19.0789 19.0928 19.1659 18.6058 18.9679 18.2058C18.1359 16.5268 19.0929 14.9848 20.8109 14.9558C21.2669 14.9478 21.6729 14.6478 21.7799 14.2058C21.9529 13.4888 21.9989 12.8638 21.9989 11.9868C21.9989 11.2328 21.9099 10.4898 21.7489 9.76778C21.6469 9.31178 21.2479 8.98778 20.7799 8.98678C19.0889 8.98378 18.1409 7.32178 18.9679 5.86178C19.1979 5.45478 19.1259 4.95679 18.7799 4.64279C17.6899 3.65279 16.3609 2.87978 14.9679 2.45578C14.5399 2.32578 14.0849 2.48578 13.8429 2.86178C12.8769 4.36178 11.0729 4.38879 10.1239 2.89279C9.8809 2.50979 9.3999 2.31778 8.9679 2.45578ZM11.9989 7.98678C14.2079 7.98678 15.9989 9.77778 15.9989 11.9868C15.9989 14.1958 14.2079 15.9868 11.9989 15.9868C9.7899 15.9868 7.9989 14.1958 7.9989 11.9868C7.9989 9.77778 9.7899 7.98678 11.9989 7.98678Z" fill="black"/>
</svg>
