<svg width="24" height="24" viewBox="0 0 24 24" className="w-6 h-6 fill-current text-white" style={{fill: 'currentcolor'}} xmlns="http://www.w3.org/2000/svg">
<path d="M5.99072 2.92993C5.61172 2.92993 5.25372 3.15394 5.08472 3.49194L2.99072 6.92993C3.02672 8.81593 4.51572 9.92993 5.99072 9.92993C6.76872 9.92993 7.45772 9.63493 7.99072 9.14893C8.52372 9.63493 9.21272 9.92993 9.99072 9.92993C10.7687 9.92993 11.4577 9.63493 11.9907 9.14893C12.5237 9.63493 13.2127 9.92993 13.9907 9.92993C14.7687 9.92993 15.4577 9.66593 15.9907 9.17993C16.5237 9.66593 17.2127 9.92993 17.9907 9.92993C19.4657 9.92993 20.9817 8.77793 20.9907 6.92993L18.8967 3.49194C18.7277 3.15394 18.3697 2.92993 17.9907 2.92993H5.99072ZM11.9907 11.4609C11.3647 11.7359 10.7017 11.9299 9.99072 11.9299C9.63672 11.9299 9.32272 11.7929 8.99072 11.7109V14.9299H14.9907V11.7109C14.6587 11.7939 14.3447 11.9299 13.9907 11.9299C13.2807 11.9299 12.6107 11.7359 11.9907 11.4609ZM3.99072 11.4919C3.99072 14.3629 3.99072 17.4069 3.99072 18.9299C3.43872 18.9299 2.99072 19.3779 2.99072 19.9299C2.99072 20.4819 3.43872 20.9299 3.99072 20.9299H4.99072H18.9907H19.9907C20.5427 20.9299 20.9907 20.4819 20.9907 19.9299C20.9907 19.3779 20.5427 18.9299 19.9907 18.9299V11.4919C19.3697 11.7659 18.6987 11.9299 17.9907 11.9299C17.6367 11.9299 17.3227 11.7939 16.9907 11.7109V15.9299C16.9907 16.4819 16.5427 16.9299 15.9907 16.9299H7.99072C7.43872 16.9299 6.99072 16.4819 6.99072 15.9299V11.7109C6.65772 11.7939 6.34472 11.9299 5.99072 11.9299C5.28272 11.9299 4.60872 11.7619 3.99072 11.4919Z"/>
</svg>
