<svg width="24" height="24" viewBox="0 0 24 24" fill="none" xmlns="http://www.w3.org/2000/svg">
<path fill-rule="evenodd" clip-rule="evenodd" d="M9.60002 4.80027C6.94906 4.80027 4.80002 6.9493 4.80002 9.60027C4.80002 12.2512 6.94906 14.4003 9.60002 14.4003C12.251 14.4003 14.4 12.2512 14.4 9.60027C14.4 6.9493 12.251 4.80027 9.60002 4.80027ZM2.40002 9.60027C2.40002 5.62382 5.62357 2.40027 9.60002 2.40027C13.5765 2.40027 16.8 5.62382 16.8 9.60027C16.8 11.1553 16.3071 12.5951 15.4689 13.7721L21.2486 19.5517C21.7172 20.0204 21.7172 20.7802 21.2486 21.2488C20.7799 21.7174 20.0201 21.7174 19.5515 21.2488L13.7719 15.4692C12.5949 16.3073 11.155 16.8003 9.60002 16.8003C5.62357 16.8003 2.40002 13.5767 2.40002 9.60027Z" fill="black"/>
</svg>
