<svg width="24" height="24" viewBox="0 0 24 24" fill="none" xmlns="http://www.w3.org/2000/svg">
<path d="M10.1201 8.90167C10.3058 8.77783 10.5353 8.66715 10.8 8.58148L10.8 10.6191C10.5353 10.5334 10.3058 10.4227 10.1201 10.2989C9.68315 10.0076 9.60002 9.73695 9.60002 9.60027C9.60002 9.46359 9.68315 9.19296 10.1201 8.90167Z" fill="black"/>
<path d="M13.2 15.4191L13.2 13.3815C13.4648 13.4672 13.6942 13.5778 13.88 13.7017C14.3169 13.993 14.4 14.2636 14.4 14.4003C14.4 14.537 14.3169 14.8076 13.88 15.0989C13.6942 15.2227 13.4648 15.3334 13.2 15.4191Z" fill="black"/>
<path fill-rule="evenodd" clip-rule="evenodd" d="M12 21.6003C17.302 21.6003 21.6 17.3022 21.6 12.0003C21.6 6.69834 17.302 2.40027 12 2.40027C6.69809 2.40027 2.40002 6.69834 2.40002 12.0003C2.40002 17.3022 6.69809 21.6003 12 21.6003ZM13.2 6.00027C13.2 5.33753 12.6628 4.80027 12 4.80027C11.3373 4.80027 10.8 5.33753 10.8 6.00027V6.11066C10.0541 6.25074 9.3642 6.52115 8.7888 6.90475C7.92279 7.48209 7.20002 8.41147 7.20002 9.60027C7.20002 10.7891 7.92279 11.7184 8.7888 12.2958C9.3642 12.6794 10.0541 12.9498 10.8 13.0899L10.8 15.4194C10.3308 15.267 9.98303 15.0385 9.78803 14.8138C9.35368 14.3132 8.59578 14.2596 8.09521 14.6939C7.59464 15.1283 7.54096 15.8862 7.9753 16.3867C8.65029 17.1646 9.67149 17.6773 10.8 17.8894L10.8 18.0002C10.8 18.663 11.3373 19.2003 12 19.2003C12.6627 19.2003 13.2 18.663 13.2 18.0003L13.2 17.8899C13.946 17.7498 14.6359 17.4794 15.2113 17.0958C16.0773 16.5184 16.8 15.5891 16.8 14.4003C16.8 13.2115 16.0773 12.2821 15.2113 11.7047C14.6359 11.3212 13.9459 11.0507 13.2 10.9107L13.2 8.58117C13.6692 8.73352 14.017 8.96198 14.212 9.18672C14.6464 9.68729 15.4043 9.74098 15.9049 9.30663C16.4054 8.87228 16.4591 8.11439 16.0248 7.61382C15.3498 6.83591 14.3286 6.32325 13.2 6.1111V6.00027Z" fill="black"/>
</svg>
